<svg id="Layer_1" enable-background="new 0 0 512 512" height="512" viewBox="0 0 512 512" width="512" xmlns="http://www.w3.org/2000/svg"><g><g><g><g id="XMLID_1816_"><g id="XMLID_1817_"><g id="XMLID_1818_"><g id="XMLID_1819_"><g id="XMLID_1820_"><g id="XMLID_1821_"><g id="XMLID_1822_"><g id="XMLID_1823_"><g id="XMLID_1824_"><g id="XMLID_1825_"><g id="XMLID_1826_"><g id="XMLID_1827_"><g id="XMLID_1828_"><g id="XMLID_1829_"><g id="XMLID_1830_"><circle cx="256" cy="256" fill="#494949" r="256"/></g></g></g></g></g></g></g></g></g></g></g></g></g></g></g></g></g><path d="m106.944 342.507 30.852 31.026c.28 1.092 21.949 60.964 21.949 60.964l76.77 76.77c6.433.484 12.93.733 19.485.733 141.385 0 256-114.615 256-256 0-6.556-.249-13.054-.733-19.487l-152.047-152.046z" fill="#2d2d2d"/><g><path d="m441.79 256c0-47.88-26.89-88.69-64.59-104.37v-.01c1.14-5.57-8.47-9.15-8.59-15.09-.09-4.34 9.61-10.81 8.82-14.96-6.64-35.31-37.36-62.5-74.32-63.56-10.9-.32-21.31 1.61-30.8 5.35-5.81 2.29-11.28 13.883-16.31 17.423-5.03-3.54-10.5-15.133-16.31-17.423-9.49-3.74-19.9-5.67-30.8-5.35-36.96 1.06-67.68 28.25-74.32 63.56-.79 4.15 6.63 12.87 6.54 17.21-.12 5.94-7.45 7.27-6.31 12.84v.01c-37.7 15.68-64.59 56.49-64.59 104.37s26.89 88.69 64.59 104.37c-1.14 5.57 3.37 10.58 3.49 16.52.09 4.34-4.51 9.38-3.73 13.53 6.64 35.31 37.37 62.5 74.33 63.57 10.9.32 21.31-1.61 30.8-5.35 5.81-2.29 11.28-20.139 16.31-23.679 5.03 3.54 10.5 21.389 16.31 23.679 9.49 3.74 19.9 5.67 30.8 5.35 36.96-1.07 67.69-28.26 74.33-63.57.78-4.15-1.79-8.44-1.7-12.78.12-5.94 2.6-11.7 1.46-17.27 37.7-15.68 64.59-56.49 64.59-104.37z" fill="#ff7d47"/><path d="m441.79 256c0-47.88-26.89-88.69-64.59-104.37v-.01c1.14-5.57-8.47-9.15-8.59-15.09-.09-4.34 9.61-10.81 8.82-14.96-6.64-35.31-37.36-62.5-74.32-63.56-10.9-.32-21.31 1.61-30.8 5.35-5.81 2.29-11.28 13.88-16.31 17.42v344.18c5.03 3.54 10.5 21.39 16.31 23.68 9.49 3.74 19.9 5.67 30.8 5.35 36.96-1.07 67.69-28.26 74.33-63.57.78-4.15-1.79-8.44-1.7-12.78.12-5.94 2.6-11.7 1.46-17.27 37.7-15.68 64.59-56.49 64.59-104.37z" fill="#ff5c5c"/><g><g><g><g><path d="m377.2 151.62-9.42-.6c-2.32-.15-3.88 1-4.6 1.7-.71.7-1.9 2.22-1.81 4.55l.84 21.71h-29.98l-.84-20.55c-.39-10.18 3.56-20.09 10.85-27.19 6.74-6.57 15.8-10.24 25.16-10.24.76.01 1.53.03 2.29.08l7.74.49c.79 4.15 1.24 8.41 1.33 12.75.12 5.94-.42 11.73-1.56 17.3z" fill="#c30047"/></g></g><g><g><path d="m180.61 158.43-.84 20.55h-29.98l.84-21.71c.09-2.33-1.1-3.85-1.81-4.55-.72-.7-2.28-1.85-4.6-1.7l-9.42.6c-1.14-5.57-1.68-11.36-1.56-17.3.09-4.34.54-8.6 1.33-12.75l7.74-.49c.76-.05 1.53-.07 2.29-.08 9.36 0 18.42 3.67 25.16 10.24 7.29 7.1 11.24 17.01 10.85 27.19z" fill="#ff4d05"/></g></g></g></g><g><g><g><g><path d="m378.76 377.68c-.09 4.34-.54 8.59-1.32 12.74l-7.75.49c-.76.05-1.53.08-2.29.08-9.36 0-18.42-3.66-25.16-10.24-7.29-7.1-11.24-17.01-10.85-27.19l.84-21.71h29.98l-.84 22.88c-.09 2.33 1.1 3.85 1.81 4.55.72.69 2.28 1.84 4.6 1.69l9.42-.6c1.14 5.57 1.68 11.37 1.56 17.31z" fill="#c30047"/></g></g><g><g><path d="m169.76 380.75c-6.74 6.58-15.8 10.24-25.16 10.24-.76 0-1.53-.03-2.29-.08l-7.75-.49c-.78-4.15-1.23-8.4-1.32-12.74-.12-5.94.42-11.74 1.56-17.31l9.42.6c2.32.15 3.88-1 4.6-1.69.71-.7 1.9-2.22 1.81-4.55l-.84-22.88h29.98l.84 21.71c.39 10.18-3.56 20.09-10.85 27.19z" fill="#ff4d05"/></g></g></g></g><path d="m352.968 256.41c-.011-.821.181-2.391 1.585-3.69l15.727-14.552-21.444-23.175-15.727 14.553c-1.554 1.438-2.967 3-4.231 4.663-3.031 3.989-7.697 6.396-12.705 6.303l-43.862-.291v-176.861c-5.81 2.29-11.28 5.25-16.31 8.79-5.03-3.54-10.5-6.5-16.31-8.79v38.838l-21.888-10.968-13.441 26.821 35.328 17.705v104.494l-44.095.264c-5.009.092-9.674-2.315-12.705-6.303-1.264-1.664-2.678-3.226-4.232-4.664l-15.727-14.552-21.444 23.175 15.726 14.552c1.404 1.299 1.596 2.87 1.585 3.69-.01.821-.242 2.386-1.677 3.649l-15.341 13.493 20.853 23.708 15.341-13.493c1.911-1.681 3.622-3.546 5.12-5.556 2.822-3.788 7.264-6.022 11.986-6.109l44.61-.279v176.815c5.81-2.29 11.28-5.25 16.31-8.79 5.03 3.54 10.5 6.5 16.31 8.79v-31.987l34.382-17.231-13.441-26.821-20.941 10.495v-111.301l44.377.307c4.723.087 9.164 2.322 11.986 6.109 1.498 2.01 3.209 3.875 5.12 5.556l15.341 13.493 20.853-23.708-15.341-13.493c-1.436-1.263-1.668-2.828-1.678-3.649z" fill="#ff4d05"/><path d="m354.65 260.06 15.34 13.49-20.86 23.71-15.34-13.49c-1.91-1.68-3.62-3.55-5.12-5.56-2.82-3.79-7.26-6.02-11.98-6.11l-44.38-.3v111.3l20.94-10.5 13.44 26.82-34.38 17.23v31.99c-5.81-2.29-11.28-5.25-16.31-8.79v-367.7c5.03-3.54 10.5-6.5 16.31-8.79v176.86l43.86.29c5.01.1 9.68-2.31 12.71-6.3 1.26-1.66 2.67-3.23 4.23-4.66l15.73-14.56 21.44 23.18-15.73 14.55c-1.4 1.3-1.59 2.87-1.58 3.69s.24 2.39 1.68 3.65z" fill="#c30047"/></g></g></svg>